# AST/ASF file generated using VICON BodyLanguage
# -----------------------------------------------
:version 1.10
:name VICON
:units
  mass 1.0
  length 0.45
  angle deg
:documentation
   .ast/.asf automatically generated from VICON data using
   VICON BodyBuilder and BodyLanguage model FoxedUp or BRILLIANT.MOD
:root
   order TX TY TZ RX RY RZ
   axis XYZ
   position 0 0 0  
   orientation 0 0 0 
:bonedata
  begin
     id 1 
     name lhipjoint
     direction 0.700308 -0.549349 0.455834 
     length 2.59063 
     axis 0 0 0  XYZ
  end
  begin
     id 2 
     name lfemur
     direction 0.34202 -0.939693 0  
     length 6.31066  
     axis 0 0 20  XYZ
    dof rx ry rz
    limits (-160.0 20.0)
           (-70.0 70.0)
           (-60.0 70.0)
  end
  begin
     id 3 
     name ltibia
     direction 0.34202 -0.939693 0   
     length 7.36093   
     axis 0 0 20   XYZ
    dof rx
    limits (-10.0 170.0)
  end
  begin
     id 4 
     name lfoot
     direction 0.0905332 -0.248738 0.96433   
     length 2.0233   
     axis -90 7.62852e-016 20   XYZ
    dof rx rz
    limits (-45.0 90.0)
           (-70.0 20.0)
  end
  begin
     id 5 
     name ltoes
     direction 1.53573e-011 -4.21855e-011 1   
     length 1.01524   
     axis -90 7.62852e-016 20   XYZ
    dof rx
    limits (-90.0 20.0)
  end
  begin
     id 6 
     name rhipjoint
     direction -0.61416 -0.607328 0.503944   
     length 2.34332  
     axis 0 0 0  XYZ 
  end
  begin
     id 7 
     name rfemur
     direction -0.34202 -0.939693 0   
     length 6.58548   
     axis 0 0 -20   XYZ
    dof rx ry rz
    limits (-160.0 20.0)
           (-70.0 70.0)
           (-70.0 60.0)
  end
  begin
     id 8 
     name rtibia
     direction -0.34202 -0.939693 0   
     length 7.20707   
     axis 0 0 -20   XYZ
    dof rx
    limits (-10.0 170.0)
 end
 begin
     id 9 
     name rfoot
     direction -0.136772 -0.375778 0.916561   
     length 1.92184  
     axis -90 -7.62852e-016 -20   XYZ
    dof rx rz
    limits (-45.0 90.0)
           (-20.0 70.0)
  end
  begin
     id 10 
     name rtoes
     direction -1.53535e-011 -4.21828e-011 1   
     length 0.951089   
     axis -90 -7.62852e-016 -20   XYZ
    dof rx
    limits (-90.0 20.0)
  end
  begin
     id 11 
     name lowerback
     direction -0.0444974 0.988086 -0.147332   
     length 1.9609   
     axis 0 0 0   XYZ
    dof rx ry rz
    limits (-20.0 45.0)
           (-30.0 30.0)
           (-30.0 30.0)
  end
  begin
     id 12 
     name upperback
     direction 0.00613146 0.999513 0.0306081   
     length 1.94944   
     axis 0 0 0   XYZ
    dof rx ry rz
    limits (-20.0 45.0)
           (-30.0 30.0)
           (-30.0 30.0)
  end
  begin
     id 13 
     name thorax
     direction 0.0254621 0.994518 0.101418   
     length 2.0119   
     axis 0 0 0   XYZ
    dof rx ry rz
    limits (-20.0 45.0)
           (-30.0 30.0)
           (-30.0 30.0)
  end
  begin
     id 14 
     name lowerneck
     direction 0.0168698 0.977854 0.208608   
     length 1.6375   
     axis 0 0 0   XYZ
    dof rx ry rz
    limits (-20.0 45.0)
           (-30.0 30.0)
           (-30.0 30.0)
  end
  begin
     id 15 
     name upperneck
     direction -0.0283988 0.989338 -0.142843   
     length 1.6851   
     axis 0 0 0   XYZ
    dof rx ry rz
    limits (-20.0 45.0)
           (-30.0 30.0)
           (-30.0 30.0)
  end
  begin
     id 16
     name head
     direction -0.0129422 0.99741 -0.0707489  
     length 1.69029  
     axis 0 0 0   XYZ
    dof rx ry rz
    limits (-20.0 45.0)
           (-30.0 30.0)
           (-30.0 30.0)
  end
  begin
     id 17 
     name lclavicle
     direction 0.820295 0.564628 -0.0911715  
     length 3.16484  
     axis 0 0 0   XYZ
    dof ry rz
    limits (-20.0 10.0)
           (0.0 20.0)
  end
  begin
     id 18 
     name lhumerus
     direction 1 -4.48969e-011 1.00186e-027   
     length 5.17853   
     axis 180 -30 -90   XYZ
    dof rx ry rz
    limits (-60.0 90.0)
           (-90.0 90.0)
           (-90.0 90.0)
  end
  begin
     id 19
     name lradius
     direction 1 -4.48966e-011 -1.52922e-027   
     length 3.40399   
     axis 180 -30 -90   XYZ
    dof rx
    limits (-10.0 170.0)
  end
  begin
     id 20
     name lwrist
     direction 1 -4.48981e-011 -3.80893e-027   
     length 1.70199   
     axis 1.1049e-015 90 90   XYZ
    dof ry
    limits (-180.0 0.0)
 end
  begin
     id 21 
     name lhand
     direction 1 -4.48957e-011 -7.61786e-027   
     length 0.708964   
     axis 4.86085e-015 90 90   XYZ
    dof rx rz
    limits (-90.0 90.0)
           (-45.0 45.0)
  end
  begin
     id 22 
     name lfingers
     direction 1 -4.48929e-011 -1.52357e-026   
     length 0.571585   
     axis 9.7217e-015 90 90   XYZ
    dof rx
    limits (0.0 90.0)
  end
  begin
     id 23
     name lthumb
     direction 0.707107 -6.34905e-011 0.707107   
     length 0.820685   
     axis -90 45 2.85299e-015   XYZ
    dof rx rz
    limits (-45.0 45.0)
           (-45.0 45.0)
  end
  begin
     id 24 
     name rclavicle
     direction -0.858602 0.463947 -0.218075   
     length 3.35137  
     axis 0 0 0   XYZ 
    dof ry rz
    limits (-10.0 20.0)
           (-20.0 0.0)
  end
  begin
     id 25 
     name rhumerus
     direction -1 -4.48969e-011 -1.98511e-027  
     length 5.42351   
     axis 180 30 90   XYZ
    dof rx ry rz
    limits (-90.0 60.0)
           (-90.0 90.0)
           (-90.0 90.0)
  end
  begin
     id 26 
     name rradius
     direction -1 -4.48961e-011 -2.82624e-027   
     length 3.42066   
     axis 180 30 90   XYZ
    dof rx
    limits (-10.0 170.0)
  end
  begin
     id 27 
     name rwrist
     direction -1 -4.48966e-011 -3.80893e-027   
     length 1.71033   
     axis 1.1049e-015 -90 -90   XYZ
    dof ry
    limits (-180.0 0.0)
  end
  begin
     id 28
     name rhand
     direction -1 -4.48964e-011 -7.61786e-027   
     length 0.743608   
     axis 4.86085e-015 -90 -90   XYZ
    dof rx rz
    limits (-90.0 90.0)
           (-45.0 45.0)
  end
  begin
     id 29
     name rfingers
     direction -1 -4.48961e-011 -1.52357e-026   
     length 0.599516   
     axis 9.7217e-015 -90 -90   XYZ
    dof rx
    limits (0.0 90.0)
  end
  begin
     id 30
     name rthumb
     direction -0.707107 -6.34913e-011 0.707107   
     length 0.860789   
     axis -90 -45 -2.85299e-015   XYZ
    dof rx rz
    limits (-45.0 45.0)
           (-45.0 45.0)
  end
:hierarchy
  begin
    root lhipjoint rhipjoint lowerback
    lhipjoint lfemur
    lfemur ltibia
    ltibia lfoot
    lfoot ltoes
    rhipjoint rfemur
    rfemur rtibia
    rtibia rfoot
    rfoot rtoes
    lowerback upperback
    upperback thorax
    thorax lowerneck lclavicle rclavicle
    lowerneck upperneck
    upperneck head
    lclavicle lhumerus
    lhumerus lradius
    lradius lwrist
    lwrist lhand lthumb
    lhand lfingers
    rclavicle rhumerus
    rhumerus rradius
    rradius rwrist
    rwrist rhand rthumb
    rhand rfingers
  end

#!OML:ASF E:\mmandel\Project 1\Capture day 1\Session 2\Subject.ASF
:FULLY-SPECIFIED
:DEGREES
637
root 7.95163 15.1812 -0.465204 82.2936 79.8799 -298.037
lowerback 24.2428 0.728166 -2.35148
upperback 3.62528 0.452206 -1.55591
thorax -9.50801 0.381203 -0.535929
lowerneck -19.9786 2.85072 3.63842
upperneck 7.9873 4.70218 -12.3364
head 6.0925 1.48497 -4.0484
rclavicle 1.19271e-014 -1.19271e-014
rhumerus -186.572 -189.059 106.361
rradius 77.307
rwrist -5.94553
rhand -16.6449 42.2263
rfingers 7.12502
rthumb 9.57796 12.464
lclavicle 1.19271e-014 -1.19271e-014
lhumerus -5.26297 -7.29985 75.3514
lradius 73.1396
lwrist 25.352
lhand -19.1702 -31.04
lfingers 7.12502
lthumb 7.14091 -1.18051
rfemur -55.7003 -12.737 8.97541
rtibia 64.4878
rfoot -28.354 -2.99026
rtoes -7.58342
lfemur -45.304 14.8 -15.6297
ltibia 42.2525
lfoot -9.69954 -8.11037
ltoes -19.0762
638
root 7.94229 15.1484 -0.472724 81.1274 79.9169 -299.138
lowerback 24.3122 0.847839 -2.57137
upperback 3.68946 0.562054 -1.47265
thorax -9.47579 0.442549 -0.352808
lowerneck -20.0475 2.94288 3.6002
upperneck 7.92332 4.77699 -12.0121
head 6.07638 1.54273 -3.92682
rclavicle 2.70347e-014 5.08889e-014
rhumerus -186.129 -188.605 106.263
rradius 77.5196
rwrist -5.91322
rhand -16.8229 42.4872
rfingers 7.12502
rthumb 9.40619 12.7171
lclavicle 2.70347e-014 5.08889e-014
lhumerus -4.96114 -7.22246 75.2516
lradius 73.2145
lwrist 25.4836
lhand -19.258 -31.2847
lfingers 7.12502
lthumb 7.05615 -1.42236
rfemur -55.9003 -12.5747 9.05923
rtibia 64.7435
rfoot -28.4905 -2.95196
rtoes -7.81341
lfemur -45.5347 15.1475 -15.6386
ltibia 42.7087
lfoot -10.0743 -8.20234
ltoes -19.8679
639
root 7.92893 15.1212 -0.482037 80.8276 79.8467 -299.366
lowerback 24.4684 0.950254 -2.77325
upperback 3.74692 0.645915 -1.44881
thorax -9.4964 0.491063 -0.23951
lowerneck -20.1937 2.93531 3.68858
upperneck 7.85098 4.72611 -11.9537
head 6.07229 1.5231 -3.92767
rclavicle 1.19271e-014 1.82882e-014
rhumerus -185.563 -188.051 106.24
rradius 77.5396
rwrist -5.8966
rhand -17.0061 42.6283
rfingers 7.12502
rthumb 9.22949 12.8503
lclavicle 1.19271e-014 1.82882e-014
lhumerus -4.51166 -7.35924 75.168
lradius 73.1214
lwrist 25.6544
lhand -19.5031 -31.6492
lfingers 7.12502
lthumb 6.81952 -1.77906
rfemur -56.0829 -12.5667 8.9744
rtibia 65.0336
rfoot -28.6041 -2.84799
rtoes -7.79793
lfemur -45.7993 15.4339 -15.8594
ltibia 43.1665
lfoot -10.3741 -8.32062
ltoes -19.7232
640
root 7.91051 15.1005 -0.505782 81.7143 79.6833 -298.524
lowerback 24.6554 0.912931 -2.73439
upperback 3.65068 0.581691 -1.58287
thorax -9.7001 0.458444 -0.395032
lowerneck -20.1656 2.94191 3.79022
upperneck 7.93062 4.68816 -11.8007
head 6.08607 1.51572 -3.89971
rclavicle -1.35174e-014 -7.95139e-016
rhumerus -185.274 -187.507 106.029
rradius 77.5666
rwrist -5.79774
rhand -17.3039 42.7793
rfingers 7.12502
rthumb 8.94212 12.9888
lclavicle -1.35174e-014 -7.95139e-016
lhumerus -4.26007 -7.57629 75.0065
lradius 73.1092
lwrist 25.8421
lhand -19.7579 -31.7987
lfingers 7.12502
lthumb 6.57356 -1.92074
rfemur -56.366 -12.9391 8.74181
rtibia 65.3235
rfoot -28.6507 -2.68445
rtoes -8.05886
lfemur -46.1872 15.4281 -16.3041
ltibia 43.5951
lfoot -10.6203 -8.28329
ltoes -18.3432
641
root 7.90134 15.0791 -0.532041 82.1982 79.5976 -298.063
lowerback 24.7871 0.870524 -2.6187
upperback 3.51498 0.528751 -1.71316
thorax -9.91973 0.426857 -0.593835
lowerneck -19.9526 2.94426 3.81072
upperneck 8.06587 4.63799 -11.4397
head 6.07743 1.51793 -3.79245
rclavicle -2.38542e-014 -5.96354e-014
rhumerus -185.185 -187.114 105.772
rradius 77.6694
rwrist -5.70815
rhand -17.6756 42.9779
rfingers 7.12502
rthumb 8.58345 13.1723
lclavicle -2.38542e-014 -5.96354e-014
lhumerus -4.1499 -7.82503 74.8217
lradius 73.1964
lwrist 25.919
lhand -19.961 -31.806
lfingers 7.12502
lthumb 6.37748 -1.92201
rfemur -56.5914 -13.2756 8.60058
rtibia 65.6023
rfoot -28.7778 -2.57615
rtoes -8.68329
lfemur -46.4861 15.4327 -16.6358
ltibia 44.0176
lfoot -10.9232 -8.18844
ltoes -16.437
642
root 7.89764 15.058 -0.553383 82.2925 79.469 -297.881
lowerback 24.7941 0.907922 -2.79474
upperback 3.54901 0.531304 -1.74661
thorax -9.88581 0.434933 -0.530653
lowerneck -19.7696 2.80064 3.83126
upperneck 7.89521 4.38259 -11.1771
head 5.96402 1.42395 -3.7384
rclavicle -1.59028e-015 1.66979e-014
rhumerus -184.896 -186.769 105.669
rradius 77.7227
rwrist -5.67715
rhand -17.822 43.2518
rfingers 7.12502
rthumb 8.44215 13.4406
lclavicle -1.59028e-015 1.66979e-014
lhumerus -3.85267 -7.98052 74.7445
lradius 73.2795
lwrist 25.8698
lhand -20.2925 -31.761
lfingers 7.12502
lthumb 6.05745 -1.86762
rfemur -56.6832 -13.4726 8.39033
rtibia 65.8744
rfoot -28.9531 -2.44104
rtoes -9.13629
lfemur -46.6293 15.4608 -16.9446
ltibia 44.4576
lfoot -11.3159 -8.06872
ltoes -14.2159
643
root 7.88869 15.0354 -0.574958 82.1406 79.3921 -297.992
lowerback 24.6971 0.957104 -2.99701
upperback 3.658 0.555584 -1.74817
thorax -9.71354 0.454457 -0.42075
lowerneck -19.7096 2.61608 3.73197
upperneck 7.64507 4.0789 -10.7821
head 5.83609 1.31127 -3.62604
rclavicle 1.03368e-014 3.02153e-014
rhumerus -184.413 -186.359 105.533
rradius 77.7423
rwrist -5.58022
rhand -18.0359 43.461
rfingers 7.12502
rthumb 8.23571 13.6415
lclavicle 1.03368e-014 3.02153e-014
lhumerus -3.47278 -8.0039 74.6931
lradius 73.4162
lwrist 25.8594
lhand -20.6311 -31.6826
lfingers 7.12502
lthumb 5.73049 -1.78009
rfemur -56.8506 -13.5691 8.2412
rtibia 66.1233
rfoot -29.0085 -2.40408
rtoes -9.61762
lfemur -46.8804 15.5273 -17.1979
ltibia 44.9124
lfoot -11.6798 -7.88872
ltoes -13.1174
